{"title":"The Day The Universe Changed Complete, BBC Originals, XViD/AVI","uid":8309645,"size":8201783400,"categoryP":"video","categoryS":"tv_shows","magnet":"?xt=urn:btih:8a70354318625ba6a4fe03e354f76e1d6e5d67df&amp;dn=The+Day+The+Universe+Changed+Complete%2C+BBC+Originals%2C+XViD%2FAVI&amp;tr=udp%3A%2F%2Ftracker.openbittorrent.com%3A80&amp;tr=udp%3A%2F%2Fopen.demonii.com%3A1337&amp;tr=udp%3A%2F%2Ftracker.coppersurfer.tk%3A6969&amp;tr=udp%3A%2F%2Fexodus.desync.com%3A6969","seeders":2,"leechers":1,"uploader":"user101966","files":10,"time":1364447717,"description":" &lt;a href=&quot;http://www.imdb.com/title/tt0199208/&quot; rel=&quot;nofollow&quot; target=&quot;_NEW&quot;&gt;http://www.imdb.com/title/tt0199208/&lt;/a&gt;\n\nThe Day the Universe Changed (subtitled &quot;A Personal View by James Burke&quot;) is a British documentary television series written and presented by science historian James Burke, originally broadcast in 1985 by the BBC.\n\nAgain, these versions are NOT the Science Channel versions. They are the original ones, as first aired in 1985.\n\nThe quality is improved over the set I posted before (8240369) ...\n\nWhy? some MVGroup people uploaded yet another version of the originals in mkv format. I figured XviD/AVI is more useful so I converted them. The mkv files had bitrates varying from under 1.5k to over 3k. I randomly chose 2k as a decent bitrate for these files.\n\nFormat is XviD, typically:\n\nFormat                                   : AVI\nFormat/Info                              : Audio Video Interleave\nFile size                                : ~800 MiB\nDuration                                 : ~50mn\nOverall bit rate mode                    : Variable\nOverall bit rate                         : 2 184 Kbps\nWriting application                      : MEncoder r33883\nWriting library                          : MPlayer\n\nVideo\nID                                       : 0\nFormat                                   : MPEG-4 Visual\nFormat profile                           : Simple@L3\nFormat settings, BVOP                    : No\nFormat settings, QPel                    : No\nFormat settings, GMC                     : No warppoints\nFormat settings, Matrix                  : Default (H.263)\nCodec ID                                 : XVID\nCodec ID/Hint                            : XviD\nDuration                                 : 50mn 4s\nSource duration                          : 50mn 4s\nBit rate                                 : 1 986 Kbps\nWidth                                    : 640 pixels\nHeight                                   : 480 pixels\nDisplay aspect ratio                     : 4:3\nOriginal display aspect ratio            : 4:3\nFrame rate                               : 29.970 fps\nColor space                              : YUV\nChroma subsampling                       : 4:2:0\nBit depth                                : 8 bits\nScan type                                : Progressive\nCompression mode                         : Lossy\nBits/(Pixel*Frame)                       : 0.216\nStream size                              : 711 MiB (91%)\nWriting library                          : XviD 63\n\nAudio\nID                                       : 1\nFormat                                   : MPEG Audio\nFormat version                           : Version 1\nFormat profile                           : Layer 3\nMode                                     : Joint stereo\nMode extension                           : MS Stereo\nCodec ID                                 : 55\nCodec ID/Hint                            : MP3\nDuration                                 : 49mn 57s\nBit rate mode                            : Variable\nBit rate                                 : 185 Kbps\nChannel(s)                               : 2 channels\nSampling rate                            : 48.0 KHz\nCompression mode                         : Lossy\nStream size                              : 66.0 MiB (8%)\nAlignment                                : Aligned on interleaves\nInterleave, duration                     : 24 ms (0.72 video frame)\nInterleave, preload duration             : 205 ms\n\nEnjoy!","torrent":{"xt":"urn:btih:8a70354318625ba6a4fe03e354f76e1d6e5d67df","amp;dn":"The+Day+The+Universe+Changed+Complete%2C+BBC+Originals%2C+XViD%2FAVI","amp;tr":["udp%3A%2F%2Ftracker.openbittorrent.com%3A80","udp%3A%2F%2Fopen.demonii.com%3A1337","udp%3A%2F%2Ftracker.coppersurfer.tk%3A6969","udp%3A%2F%2Fexodus.desync.com%3A6969"],"infoHash":"8a70354318625ba6a4fe03e354f76e1d6e5d67df","infoHashBuffer":{"type":"Buffer","data":[138,112,53,67,24,98,91,166,164,254,3,227,84,247,110,29,110,93,103,223]},"announce":[],"urlList":[]}}